<svg width="38" height="38" viewBox="0 0 38 38" fill="none" xmlns="http://www.w3.org/2000/svg">
<path d="M19 13V11M19 13C17.8954 13 17 13.8954 17 15C17 16.1046 17.8954 17 19 17M19 13C20.1046 13 21 13.8954 21 15C21 16.1046 20.1046 17 19 17M13 25C14.1046 25 15 24.1046 15 23C15 21.8954 14.1046 21 13 21M13 25C11.8954 25 11 24.1046 11 23C11 21.8954 11.8954 21 13 21M13 25V27M13 21V11M19 17V27M25 25C26.1046 25 27 24.1046 27 23C27 21.8954 26.1046 21 25 21M25 25C23.8954 25 23 24.1046 23 23C23 21.8954 23.8954 21 25 21M25 25V27M25 21V11" stroke="#8054C7" stroke-width="1.6" stroke-linecap="round" stroke-linejoin="round"/>
</svg>
